#!OML:ASF H:\Dans Jumps\Project 1\Capture day 1\Session 1\subject.ASF
:FULLY-SPECIFIED
:DEGREES
163
root 0.470236 17.4734 -14.4099 6.56638 0.229562 -2.16224
lowerback -0.878658 -0.751709 0.611448
upperback 4.92241 -1.11791 1.84031
thorax 5.61148 -0.574795 1.50164
lowerneck -11.762 0.586151 -2.24523
upperneck 34.2255 1.25436 0.541908
head 13.4732 0.323542 0.793136
rclavicle -2.0276e-014 2.06736e-014
rhumerus -18.4038 -15.8993 -82.5179
rradius 25.7442
rwrist 31.9072
rhand -18.2848 -26.6429
rfingers 7.12502
rthumb 7.99543 -56.4717
lclavicle -2.0276e-014 2.06736e-014
lhumerus -16.0148 -0.510149 87.9456
lradius 18.3324
lwrist -0.427245
lhand -23.3622 -3.39368
lfingers 7.12502
lthumb 3.09334 26.5636
rfemur -14.8841 -2.36391 19.3955
rtibia 22.557
rfoot -13.5301 -2.727
rtoes 4.62746
lfemur -15.6457 7.6861 -17.1176
ltibia 22.0874
lfoot -11.2103 4.79392
ltoes -13.0293
164
root 0.469766 17.4718 -14.4129 6.57299 0.255999 -2.18447
lowerback -0.849551 -0.752209 0.62595
upperback 4.91901 -1.11907 1.85238
thorax 5.59125 -0.575007 1.50631
lowerneck -11.7679 0.576501 -2.25454
upperneck 34.1599 1.23865 0.552805
head 13.4458 0.317811 0.796272
rclavicle 1.39149e-015 -1.47101e-014
rhumerus -18.4132 -15.9132 -82.4772
rradius 25.7305
rwrist 31.9307
rhand -18.2974 -26.6203
rfingers 7.12502
rthumb 7.98327 -56.4496
lclavicle 1.39149e-015 -1.47101e-014
lhumerus -16.0431 -0.509193 87.9436
lradius 18.3397
lwrist -0.419108
lhand -23.3309 -3.35324
lfingers 7.12502
lthumb 3.12357 26.6036
rfemur -14.9225 -2.37902 19.4237
rtibia 22.5997
rfoot -13.5426 -2.73451
rtoes 4.61508
lfemur -15.7183 7.66814 -17.0932
ltibia 22.1814
lfoot -11.2324 4.80587
ltoes -13.064
165
root 0.469277 17.4701 -14.4159 6.57971 0.282221 -2.20622
lowerback -0.817663 -0.752323 0.63857
upperback 4.91416 -1.11954 1.86411
thorax 5.5679 -0.574947 1.51178
lowerneck -11.7745 0.565677 -2.26712
upperneck 34.0949 1.22032 0.568967
head 13.4188 0.311197 0.801687
rclavicle -5.61567e-015 7.55382e-015
rhumerus -18.428 -15.9221 -82.4368
rradius 25.7236
rwrist 31.9443
rhand -18.3002 -26.611
rfingers 7.12502
rthumb 7.98056 -56.4403
lclavicle -5.61567e-015 7.55382e-015
lhumerus -16.0743 -0.521887 87.9435
lradius 18.3486
lwrist -0.400737
lhand -23.3065 -3.32925
lfingers 7.12502
lthumb 3.14713 26.6273
rfemur -14.9606 -2.394 19.4519
rtibia 22.6412
rfoot -13.5533 -2.74514
rtoes 4.58674
lfemur -15.7905 7.65516 -17.0696
ltibia 22.2749
lfoot -11.2568 4.8132
ltoes -13.0983
166
root 0.468836 17.4685 -14.4186 6.58692 0.306296 -2.23034
lowerback -0.785432 -0.751842 0.652922
upperback 4.90843 -1.11925 1.87629
thorax 5.5434 -0.574447 1.51678
lowerneck -11.7828 0.553174 -2.28294
upperneck 34.0306 1.19935 0.588349
head 13.3925 0.303416 0.808573
rclavicle 3.47873e-015 -5.96354e-016
rhumerus -18.4461 -15.9231 -82.3963
rradius 25.7201
rwrist 31.9463
rhand -18.2958 -26.6127
rfingers 7.12502
rthumb 7.98481 -56.4419
lclavicle 3.47873e-015 -5.96354e-016
lhumerus -16.1082 -0.543395 87.9448
lradius 18.3595
lwrist -0.375774
lhand -23.288 -3.3134
lfingers 7.12502
lthumb 3.165 26.6429
rfemur -14.9985 -2.40838 19.4827
rtibia 22.6816
rfoot -13.5637 -2.75606
rtoes 4.54442
lfemur -15.8618 7.64764 -17.0439
ltibia 22.3671
lfoot -11.2833 4.81749
ltoes -13.1278
167
root 0.468533 17.4669 -14.4211 6.59271 0.329099 -2.25275
lowerback -0.752198 -0.751563 0.666166
upperback 4.90222 -1.11911 1.88764
thorax 5.51783 -0.574048 1.52154
lowerneck -11.7868 0.540037 -2.30206
upperneck 33.9629 1.17736 0.610147
head 13.3639 0.295118 0.81677
rclavicle 7.65321e-015 -1.05356e-014
rhumerus -18.4682 -15.9187 -82.3555
rradius 25.7194
rwrist 31.9468
rhand -18.284 -26.6293
rfingers 7.12502
rthumb 7.99624 -56.4581
lclavicle 7.65321e-015 -1.05356e-014
lhumerus -16.1454 -0.569262 87.947
lradius 18.372
lwrist -0.348295
lhand -23.2783 -3.30686
lfingers 7.12502
lthumb 3.17432 26.6493
rfemur -15.0339 -2.42793 19.5115
rtibia 22.7208
rfoot -13.5743 -2.7628
rtoes 4.49403
lfemur -15.9291 7.64588 -17.0206
ltibia 22.457
lfoot -11.3134 4.81673
ltoes -13.1548
168
root 0.468357 17.4654 -14.4234 6.59947 0.349545 -2.27385
lowerback -0.720846 -0.750689 0.679065
upperback 4.8949 -1.11809 1.89756
thorax 5.49212 -0.573189 1.52504
lowerneck -11.7928 0.527014 -2.31694
upperneck 33.8976 1.1559 0.627898
head 13.3369 0.287023 0.822731
rclavicle 9.93923e-016 -1.98785e-016
rhumerus -18.4942 -15.9134 -82.3146
rradius 25.7184
rwrist 31.948
rhand -18.2729 -26.6497
rfingers 7.12502
rthumb 8.00692 -56.478
lclavicle 9.93923e-016 -1.98785e-016
lhumerus -16.1841 -0.594853 87.9488
lradius 18.383
lwrist -0.32571
lhand -23.2719 -3.30194
lfingers 7.12502
lthumb 3.18051 26.6541
rfemur -15.0691 -2.44949 19.538
rtibia 22.7593
rfoot -13.5864 -2.76327
rtoes 4.45702
lfemur -15.9943 7.64814 -16.9994
ltibia 22.5445
lfoot -11.3463 4.81306
ltoes -13.1744
